<?xml version="1.0" encoding="UTF-8" standalone="no"?>
<!-- Created with Inkscape (http://www.inkscape.org/) -->

<svg
   xmlns:dc="http://purl.org/dc/elements/1.1/"
   xmlns:cc="http://creativecommons.org/ns#"
   xmlns:rdf="http://www.w3.org/1999/02/22-rdf-syntax-ns#"
   xmlns:svg="http://www.w3.org/2000/svg"
   xmlns="http://www.w3.org/2000/svg"
   xmlns:sodipodi="http://sodipodi.sourceforge.net/DTD/sodipodi-0.dtd"
   xmlns:inkscape="http://www.inkscape.org/namespaces/inkscape"
   width="181.21822mm"
   height="61.522915mm"
   viewBox="0 0 181.21822 61.522915"
   version="1.1"
   id="svg5370"
   inkscape:version="0.92.0 r15299"
   sodipodi:docname="DHN loose.svg">
  <defs
     id="defs5364" />
  <sodipodi:namedview
     id="base"
     pagecolor="#ffffff"
     bordercolor="#666666"
     borderopacity="1.0"
     inkscape:pageopacity="0.0"
     inkscape:pageshadow="2"
     inkscape:zoom="0.7"
     inkscape:cx="237.63213"
     inkscape:cy="12.695649"
     inkscape:document-units="mm"
     inkscape:current-layer="layer1"
     showgrid="false"
     fit-margin-top="0"
     fit-margin-left="0"
     fit-margin-right="0"
     fit-margin-bottom="0"
     inkscape:window-width="1366"
     inkscape:window-height="705"
     inkscape:window-x="1272"
     inkscape:window-y="-8"
     inkscape:window-maximized="1" />
  <metadata
     id="metadata5367">
    <rdf:RDF>
      <cc:Work
         rdf:about="">
        <dc:format>image/svg+xml</dc:format>
        <dc:type
           rdf:resource="http://purl.org/dc/dcmitype/StillImage" />
        <dc:title></dc:title>
      </cc:Work>
    </rdf:RDF>
  </metadata>
  <g
     inkscape:label="Layer 1"
     inkscape:groupmode="layer"
     id="layer1"
     transform="translate(-2.9690896,-5.1810404)">
    <path
       style="display:inline;fill:#000000;stroke-width:0.08466666"
       d="m 37.508176,7.2517734 c -2.726298,-1.04384 -4.999548,-1.58914 -7.904356,-1.89609 -1.08323,-0.11447 -3.11283,-0.1389 -13.80067,-0.16616 -8.1702405,-0.0209 -12.5748605,-0.003 -12.6576705,0.0517 -0.1104,0.0728 -0.12907,0.78869 -0.14288,5.4785406 -0.01,3.36607 0.0151,5.45272 0.0665,5.54874 0.0766,0.1431 0.24786,0.1539 2.44099,0.1539 2.07935,0 2.36476,0.016 2.41037,0.13484 0.0669,0.17445 0.0659,38.67461 -10e-4,38.84909 -0.0442,0.11527 -0.35064,0.13207 -2.40931,0.13207 -2.24526,0 -2.36284,0.008 -2.44628,0.16377 -0.13841,0.25863 -0.11957,10.68219 0.0197,10.87259 0.10117,0.13835 0.84796,0.14488 13.0598405,0.11414 9.2474,-0.0233 13.18262,-0.0611 13.75687,-0.13236 34.554629,-6.87448 33.734069,-49.43841 7.607906,-59.3047706 z M 21.4723,55.432474 c -0.0221,-0.0582 -0.0305,-8.84979 -0.0185,-19.53684 l 0.0217,-19.43099 3.34433,8.7e-4 c 3.14869,8.5e-4 3.39881,0.0121 4.27567,0.19363 2.433877,0.50373 4.609059,1.57582 6.617617,3.26166 2.997631,2.51599 5.307131,6.60657 6.249252,11.06869 0.491378,2.32731 0.602548,5.89889 0.26077,8.37747 -0.627922,4.55359 -2.904172,9.22078 -5.865982,12.02753 -2.37332,2.24907 -4.985379,3.57003 -7.939877,4.01533 -1.12438,0.16946 -6.88206,0.18823 -6.94497,0.0226 z"
       id="path5362"
       inkscape:connector-curvature="0"
       sodipodi:nodetypes="ccccccsccsccccccccccsscsccc" />
    <path
       style="display:inline;fill:#000000;stroke-width:0.08466666"
       d="m 122.18533,66.621943 c -0.1365,-0.10028 -0.14489,-0.47595 -0.12434,-5.56854 l 0.022,-5.461 2.49767,-0.0423 2.49767,-0.0423 v -19.47335 -19.47332 l -2.36364,-0.0225 c -1.57102,-0.015 -2.40148,-0.0539 -2.4765,-0.1162 -0.0919,-0.0763 -0.11286,-1.11153 -0.11286,-5.57758 0,-4.9225009 0.0137,-5.4891609 0.13392,-5.5353009 0.17219,-0.0661 14.71891,-0.0461 16.84174,0.0232 l 1.60867,0.0525 1.23515,1.94734 c 0.67933,1.07103 3.26625,5.1667809 5.7487,9.1016609 2.48246,3.93489 4.972,7.87824 5.53235,8.763 0.56033,0.88477 1.23431,1.95157 1.49772,2.37067 0.26342,0.4191 1.40586,2.22885 2.53876,4.02167 1.13289,1.79281 2.59883,4.11691 3.25765,5.16466 3.09679,4.925 5.32754,8.43749 5.44304,8.5705 0.0698,0.0804 0.15994,0.12577 0.20027,0.10084 0.0409,-0.0253 0.0734,-6.44813 0.0734,-14.51536 0,-14.21943 -0.003,-14.47154 -0.16377,-14.55767 -0.10192,-0.0545 -1.07706,-0.0876 -2.58234,-0.0876 h -2.41856 v -5.4613 -5.4613009 l 11.53583,0.0215 11.53584,0.0215 0.0218,5.4398409 0.0218,5.43983 h -2.33453 c -1.44733,0 -2.39676,0.0333 -2.49828,0.0876 -0.16135,0.0863 -0.16377,0.4582 -0.16377,25.146 v 25.05836 l -6.6675,-1.7e-4 -6.6675,-1.7e-4 -2.75167,-4.27414 c -1.51342,-2.35078 -3.43747,-5.34083 -4.27567,-6.64455 -0.8382,-1.30372 -2.47427,-3.84751 -3.63572,-5.65286 -1.16145,-1.80534 -2.51616,-3.9111 -3.01047,-4.67945 -0.49431,-0.76835 -2.15104,-3.3401 -3.68161,-5.715 -1.53058,-2.3749 -3.96102,-6.14679 -5.40098,-8.38199 -1.43995,-2.2352 -2.66018,-4.09007 -2.71161,-4.12192 -0.0514,-0.0318 -0.12391,-0.0391 -0.16107,-0.0162 -0.0371,0.023 -0.0675,6.43268 -0.0675,14.24382 0,10.93316 0.0234,14.22545 0.1016,14.30366 0.0744,0.0744 0.76575,0.1016 2.58233,0.1016 h 2.48073 v 5.41692 5.41691 l -3.70416,0.0442 c -2.0373,0.0243 -7.21056,0.0639 -11.49616,0.0881 -6.22115,0.0351 -7.8215,0.0223 -7.93837,-0.0636 z"
       id="path5360"
       inkscape:connector-curvature="0"
       sodipodi:nodetypes="cccccccccsccccsccccccscscccccccscscccsscsccccscsccccccc" />
    <path
       style="display:inline;fill:#8babb1;stroke-width:0.08466666"
       d="m 52.272611,66.610654 c -0.0319,-0.0516 -0.078,-2.52824 -0.10237,-5.5036 l -0.0444,-5.40974 2.95471,-0.009 c 1.62509,-0.005 3.054512,-0.003 3.17649,0.005 0.25282,0.0162 0.29777,-0.0706 0.2832,-0.54659 -0.006,-0.18626 -0.01691,-8.95832 -0.02479,-19.49347 l -0.0145,-19.15481 -3.153831,-0.0222 -3.153838,-0.0222 v -4.23332 c 0,-5.4677302 0.0303,-6.7959002 0.156077,-6.8308102 0.0539,-0.015 5.946273,-0.008 13.094259,0.0151 l 12.996333,0.0423 v 5.4610002 5.461 l -3.199456,0.0182 c -1.759701,0.01 -3.236912,0.0413 -3.28269,0.0696 -0.130776,0.0808 -0.100971,12.70462 0.03021,12.79552 0.05607,0.0388 6.323536,0.0516 13.927716,0.0283 l 13.825702,-0.0423 -0.004,-6.38549 c -0.002,-3.51202 -0.0193,-6.40068 -0.0379,-6.41924 -0.0186,-0.0186 -1.447201,-0.03 -3.174762,-0.0254 l -3.141032,0.008 v -5.50594 c 0,-5.1866802 0.009,-5.5060402 0.14817,-5.5076102 0.0815,-9.3e-4 2.415095,-0.002 5.1858,-10e-4 4.717531,1.9e-4 5.044801,0.01 5.150061,0.14983 0.10538,0.14028 0.11067,0.13905 0.0847,-0.0197 -0.0276,-0.16818 0.0255,-0.16948 7.8257,-0.19093 l 7.85344,-0.0216 -0.0218,5.5672702 -0.0218,5.56727 -3.17065,0.0222 c -2.40687,0.0169 -3.18682,0.0474 -3.23779,0.127 -0.0762,0.11888 -0.0911,38.76712 -0.0151,38.96532 0.0429,0.11172 0.46759,0.12846 3.25757,0.12846 h 3.20828 v 5.50345 5.50343 l -13.10217,-0.0213 -13.102141,-0.0213 -0.0218,-5.41327 c -0.0172,-4.27457 5.3e-4,-5.4275 0.0847,-5.48087 0.0586,-0.0372 1.497111,-0.0682 3.196782,-0.0689 l 3.090322,-0.001 -0.0177,-7.89517 -0.0177,-7.89516 H 85.830631 71.920622 l -0.01828,7.84961 c -0.01132,4.8596 0.0122,7.86846 0.06174,7.89908 0.04402,0.0272 1.480997,0.0478 3.193288,0.0458 1.71229,-0.002 3.161165,0.0272 3.21972,0.065 0.08406,0.0542 0.101877,1.20778 0.08467,5.48191 l -0.0218,5.41329 -13.054669,0.0214 c -9.484828,0.0156 -13.070538,-0.004 -13.112678,-0.0724 z m 56.689609,-50.02934 c 0,-0.0466 -0.0594,-0.0847 -0.132,-0.0847 -0.0726,0 -0.10845,0.0381 -0.0797,0.0847 0.0288,0.0466 0.0882,0.0847 0.132,0.0847 0.0438,0 0.0797,-0.0381 0.0797,-0.0847 z m -4.6355,-0.0561 c -0.0582,-0.0235 -0.15346,-0.0235 -0.21167,0 -0.0582,0.0235 -0.0106,0.0427 0.10584,0.0427 0.11641,0 0.16404,-0.0192 0.10583,-0.0427 z m -0.38104,-8.1777602 c -0.013,-1.45521 -0.0236,-0.26458 -0.0236,2.6458302 0,2.91042 0.0106,4.10104 0.0236,2.64583 0.013,-1.4552 0.013,-3.8364497 0,-5.2916602 z"
       id="path5298"
       inkscape:connector-curvature="0" />
  </g>
</svg>
